<svg width="21" height="24" viewBox="0 0 21 24" fill="none" xmlns="http://www.w3.org/2000/svg">
<path id="Logo apple" d="M19.6433 8.18318C19.5293 8.25345 17.022 9.71322 17.0505 12.7501C17.082 16.3825 20.2348 17.5922 20.271 17.6059C20.2428 17.6924 19.7669 19.3287 18.6091 21.0187C17.6085 22.4828 16.5719 23.9386 14.936 23.969C13.3287 23.9984 12.8107 23.0153 10.9746 23.0153C9.13733 23.0153 8.56227 23.9386 7.04235 23.9984C5.46328 24.0582 4.26108 22.4174 3.25309 20.9614C1.19245 17.9816 -0.383065 12.5403 1.73248 8.86824C2.78276 7.04456 4.66001 5.88919 6.69687 5.85934C8.24809 5.83003 9.71102 6.90217 10.6599 6.90217C11.5952 6.90217 13.2714 5.65235 15.2473 5.79853C16.0217 5.85592 18.2201 6.08704 19.6433 8.18318ZM14.0281 3.83147C14.8673 2.81728 15.4319 1.40485 15.2764 0C14.0686 0.0478968 12.6079 0.804507 11.7416 1.81805C10.9659 2.71589 10.2846 4.15389 10.4695 5.53006C11.8157 5.63408 13.1897 4.84628 14.0281 3.83147Z" fill="#141414"/>
</svg>
