<svg width="32" height="32" viewBox="0 0 32 32" fill="none" xmlns="http://www.w3.org/2000/svg">
    <g id="Calendar_add_light">
<path id="Rectangle 25" d="M26 12.6666V11.6C26 10.1065 26 9.35977 25.7094 8.78934C25.4537 8.28757 25.0457 7.87962 24.544 7.62396C23.9735 7.33331 23.2268 7.33331 21.7333 7.33331H10.2667C8.77319 7.33331 8.02646 7.33331 7.45603 7.62396C6.95426 7.87962 6.54631 8.28757 6.29065 8.78934C6 9.35977 6 10.1065 6 11.6V12.6666M26 12.6666V21.7333C26 23.2268 26 23.9735 25.7094 24.544C25.4537 25.0457 25.0457 25.4537 24.544 25.7093C23.9735 26 23.2268 26 21.7333 26H10.2667C8.77319 26 8.02646 26 7.45603 25.7093C6.95426 25.4537 6.54631 25.0457 6.29065 24.544C6 23.9735 6 23.2268 6 21.7333V12.6666M26 12.6666H6" stroke="#FFFFFA" stroke-width="1.33333"/>
<path id="Vector" d="M11.3335 4.66669L11.3335 10M20.6668 4.66669L20.6668 10" stroke="#FFFFFA" stroke-width="1.33333" stroke-linecap="round"/>
<path id="Vector 8" d="M16 22.6667L16 16" stroke="#FFFFFA" stroke-width="1.33333" stroke-linecap="round"/>
<path id="Vector 9" d="M19.3335 19.3333L12.6668 19.3333" stroke="#FFFFFA" stroke-width="1.33333" stroke-linecap="round"/>
</g>
</svg>
