<svg width="32" height="32" viewBox="0 0 32 32" fill="none" xmlns="http://www.w3.org/2000/svg">
<g id="Home_light">
<path id="Rectangle 1" d="M6.6665 17.0128C6.6665 15.2024 6.6665 14.2973 7.03245 13.5016C7.3984 12.706 8.08566 12.1169 9.46017 10.9387L10.7935 9.79588C13.2779 7.66638 14.5201 6.60162 15.9998 6.60162C17.4795 6.60162 18.7217 7.66638 21.2062 9.79588L22.5395 10.9387C23.914 12.1169 24.6013 12.706 24.9672 13.5016C25.3332 14.2973 25.3332 15.2024 25.3332 17.0128V22.6666C25.3332 25.1808 25.3332 26.4379 24.5521 27.2189C23.7711 28 22.514 28 19.9998 28H11.9998C9.48568 28 8.2286 28 7.44755 27.2189C6.6665 26.4379 6.6665 25.1808 6.6665 22.6666V17.0128Z" stroke="#222222" stroke-width="1.33333"/>
<path id="Vector 3" d="M19.3332 28V21.3333C19.3332 20.597 18.7362 20 17.9998 20H13.9998C13.2635 20 12.6665 20.597 12.6665 21.3333V28" stroke="#222222" stroke-width="1.33333" stroke-linecap="round" stroke-linejoin="round"/>
</g>
</svg>
