<svg width="32" height="32" viewBox="0 0 32 32" fill="none" xmlns="http://www.w3.org/2000/svg">
<g id="Ticket_light">
<path id="Rectangle 1" d="M4 11.3333C4 9.46955 4 8.53766 4.30448 7.80258C4.71046 6.82247 5.48915 6.04377 6.46927 5.63779C7.20435 5.33331 8.13623 5.33331 10 5.33331H22C23.8638 5.33331 24.7957 5.33331 25.5307 5.63779C26.5108 6.04377 27.2895 6.82247 27.6955 7.80258C28 8.53766 28 9.46955 28 11.3333V12.3333C28 12.8856 27.5523 13.3333 27 13.3333H26.6667C25.1939 13.3333 24 14.5272 24 16V16C24 17.4727 25.1939 18.6666 26.6667 18.6666H27C27.5523 18.6666 28 19.1144 28 19.6666V20.6666C28 22.5304 28 23.4623 27.6955 24.1974C27.2895 25.1775 26.5108 25.9562 25.5307 26.3622C24.7957 26.6666 23.8638 26.6666 22 26.6666H10C8.13623 26.6666 7.20435 26.6666 6.46927 26.3622C5.48915 25.9562 4.71046 25.1775 4.30448 24.1974C4 23.4623 4 22.5304 4 20.6666V19.6666C4 19.1144 4.44772 18.6666 5 18.6666H5.33333C6.80609 18.6666 8 17.4727 8 16V16C8 14.5272 6.80609 13.3333 5.33333 13.3333H5C4.44772 13.3333 4 12.8856 4 12.3333V11.3333Z" stroke="#222222" stroke-width="1.33333"/>
<path id="Star 1" d="M15.4092 14.2514C15.6333 13.6714 15.7454 13.3814 15.9275 13.3412C15.9754 13.3307 16.0249 13.3307 16.0728 13.3412C16.2549 13.3814 16.367 13.6714 16.5911 14.2514C16.7186 14.5812 16.7824 14.7461 16.9016 14.8583C16.9351 14.8897 16.9714 14.9177 17.0101 14.9419C17.1479 15.0282 17.32 15.0441 17.6642 15.0761C18.2468 15.1303 18.5381 15.1574 18.6271 15.3297C18.6455 15.3654 18.658 15.4041 18.6641 15.4441C18.6936 15.6372 18.4795 15.8394 18.0512 16.2438L17.9322 16.3561C17.732 16.5452 17.6319 16.6397 17.5739 16.7577C17.5392 16.8284 17.5159 16.9047 17.505 16.9833C17.4868 17.1143 17.5161 17.2515 17.5748 17.5257L17.5957 17.6237C17.7009 18.1156 17.7534 18.3615 17.6878 18.4824C17.6289 18.591 17.5203 18.6605 17.4003 18.6664C17.2667 18.6731 17.0786 18.5139 16.7022 18.1957C16.4542 17.986 16.3303 17.8811 16.1926 17.8402C16.0669 17.8028 15.9335 17.8028 15.8077 17.8402C15.6701 17.8811 15.5461 17.986 15.2981 18.1957C14.9218 18.5139 14.7336 18.6731 14.6 18.6664C14.4801 18.6605 14.3715 18.591 14.3125 18.4824C14.2469 18.3615 14.2995 18.1156 14.4046 17.6237L14.4256 17.5257C14.4842 17.2515 14.5135 17.1143 14.4953 16.9833C14.4844 16.9047 14.4611 16.8284 14.4264 16.7577C14.3685 16.6397 14.2683 16.5452 14.0681 16.3561L13.9492 16.2438C13.5208 15.8394 13.3067 15.6372 13.3362 15.4441C13.3423 15.4041 13.3548 15.3654 13.3732 15.3297C13.4622 15.1574 13.7535 15.1303 14.3361 15.0761C14.6803 15.0441 14.8524 15.0282 14.9903 14.9419C15.0289 14.9177 15.0652 14.8897 15.0987 14.8583C15.218 14.7461 15.2817 14.5812 15.4092 14.2514Z" fill="#222222" stroke="#222222" stroke-width="1.33333"/>
</g>
</svg>
